<?xml version="1.0" encoding="utf-8"?>
<!-- Generator: Adobe Illustrator 15.1.0, SVG Export Plug-In  -->
<!DOCTYPE svg PUBLIC "-//W3C//DTD SVG 1.1//EN" "http://www.w3.org/Graphics/SVG/1.1/DTD/svg11.dtd" [
	<!ENTITY ns_flows "http://ns.adobe.com/Flows/1.0/">
]>
<svg version="1.1"
	 xmlns="http://www.w3.org/2000/svg" xmlns:xlink="http://www.w3.org/1999/xlink" xmlns:a="http://ns.adobe.com/AdobeSVGViewerExtensions/3.0/"
	 x="0px" y="0px" width="411px" height="144px" viewBox="-8.902 -13.44 411 144" enable-background="new -8.902 -13.44 411 144"
	 xml:space="preserve">
<defs>
</defs>
<path d="M29.8,19.848l-8.209,28.614c2.499-2.721,4.587-4.532,6.264-5.434c1.677-0.902,3.495-1.353,5.457-1.353
	c3.796,0,6.635,1.369,8.518,4.104c1.882,2.737,2.824,5.893,2.824,9.467c0,8.542-3.101,16.166-9.301,22.872
	c-5.504,5.916-11.768,8.874-18.791,8.874c-5.22,0-10.741-1.534-16.561-4.604l14.521-50.347c0.696-2.373,1.044-4.001,1.044-4.888
	c0-0.759-0.316-1.359-0.949-1.803c-0.886-0.633-2.23-0.902-4.034-0.807l0.522-1.898l15.849-2.8H29.8z M11.579,82.865
	c1.486,0.949,2.831,1.424,4.033,1.424c1.677,0,3.084-0.332,4.224-0.997c1.803-1.074,3.693-3.021,5.67-5.836
	c1.977-2.815,3.63-6.217,4.958-10.202c1.329-3.986,1.993-7.956,1.993-11.911c0-2.245-0.506-3.954-1.519-5.125
	c-1.013-1.17-2.183-1.755-3.511-1.755c-2.215,0-4.145,1.075-5.79,3.227c-1.107,1.393-2.31,4.35-3.606,8.873L11.579,82.865z"/>
<path d="M62.388,67.87c-0.285,2.057-0.427,3.749-0.427,5.078c0,2.372,0.688,4.271,2.064,5.694c1.376,1.423,3.219,2.135,5.528,2.135
	c2.214,0,4.437-0.537,6.667-1.613c2.23-1.075,4.816-2.958,7.758-5.646l1.424,1.281c-3.639,4.397-7.182,7.529-10.629,9.396
	c-3.449,1.866-7.26,2.8-11.436,2.8c-5.284,0-8.938-1.266-10.961-3.797c-2.025-2.53-3.037-5.457-3.037-8.778
	c0-5.188,1.51-10.376,4.532-15.564c3.021-5.188,7.133-9.348,12.337-12.479c5.204-3.132,10.432-4.698,15.683-4.698
	c2.657,0,4.666,0.633,6.026,1.898c1.36,1.266,2.041,2.864,2.041,4.792c0,2.31-0.664,4.556-1.993,6.738
	c-1.835,2.975-4.145,5.371-6.928,7.189c-2.784,1.819-5.9,3.203-9.348,4.152C69.379,67.08,66.279,67.554,62.388,67.87z
	 M62.815,65.403c2.783-0.411,4.942-0.973,6.477-1.685c1.534-0.712,3.037-1.851,4.508-3.417c1.471-1.565,2.744-3.543,3.82-5.932
	c1.075-2.388,1.613-4.626,1.613-6.714c0-0.886-0.246-1.582-0.735-2.088c-0.491-0.506-1.115-0.76-1.875-0.76
	c-1.519,0-3.227,1.061-5.125,3.18C68.019,51.847,65.124,57.652,62.815,65.403z"/>
<path d="M117.707,30.098l-3.796,12.907h6.216l-1.661,5.458h-6.122l-7.924,27.521c-0.506,1.709-0.759,3.006-0.759,3.892
	c0,0.411,0.143,0.768,0.427,1.067c0.285,0.301,0.601,0.451,0.949,0.451c0.538,0,1.091-0.221,1.661-0.664
	c1.455-1.107,3.147-3.037,5.077-5.79l1.661,1.044c-2.183,3.797-4.587,6.581-7.213,8.352c-2.626,1.771-5.204,2.658-7.735,2.658
	c-2.151,0-3.82-0.546-5.006-1.638c-1.186-1.091-1.779-2.475-1.779-4.152c0-1.834,0.411-4.191,1.234-7.07l7.498-25.671H93.98
	l0.949-3.512c4.049-1.487,7.466-3.227,10.25-5.22c2.783-1.993,6.137-5.204,10.06-9.633H117.707z"/>
<path d="M162.917,42.341l-9.206,31.555l-0.949,3.844c-0.095,0.475-0.143,0.823-0.143,1.044c0,0.38,0.134,0.712,0.403,0.997
	c0.269,0.284,0.546,0.427,0.831,0.427c0.664,0,1.582-0.506,2.752-1.519c0.475-0.411,1.614-1.866,3.417-4.365l1.661,0.854
	c-2.247,4.113-4.643,7.11-7.189,8.992c-2.547,1.882-5.291,2.824-8.233,2.824c-1.803,0-3.179-0.468-4.128-1.4
	s-1.424-2.111-1.424-3.535c0-1.233,0.506-3.527,1.519-6.881l1.139-3.843c-3.67,6.295-7.197,10.756-10.582,13.381
	c-1.962,1.519-4.05,2.278-6.264,2.278c-2.911,0-5.014-1.195-6.311-3.583c-1.298-2.389-1.946-5.085-1.946-8.091
	c0-4.46,1.36-9.577,4.081-15.351c2.72-5.772,6.295-10.416,10.724-13.928c3.638-2.91,7.054-4.365,10.25-4.365
	c1.771,0,3.195,0.515,4.271,1.542c1.075,1.028,1.866,2.903,2.373,5.623l1.708-5.836L162.917,42.341z M147.732,51.357
	c0-2.563-0.396-4.413-1.186-5.552c-0.569-0.791-1.345-1.187-2.325-1.187c-0.981,0-1.993,0.475-3.037,1.423
	c-2.12,1.962-4.406,5.94-6.857,11.935c-2.452,5.995-3.677,11.175-3.677,15.541c0,1.677,0.276,2.887,0.831,3.63
	c0.553,0.743,1.162,1.115,1.827,1.115c1.423,0,2.863-0.822,4.318-2.468c2.088-2.341,3.969-5.203,5.646-8.589
	C146.245,61.258,147.732,55.976,147.732,51.357z"/>
<path d="M196.407,19.848l-12.338,42.755c4.271-6.295,7.371-10.55,9.301-12.765c2.878-3.195,5.354-5.354,7.426-6.478
	c2.072-1.123,4.057-1.685,5.955-1.685c1.613,0,2.997,0.609,4.152,1.827c1.154,1.218,1.732,2.84,1.732,4.863
	c0,1.709-0.38,3.844-1.139,6.406l-6.026,20.215c-0.538,1.772-0.807,2.958-0.807,3.559c0,0.285,0.11,0.546,0.333,0.783
	c0.221,0.237,0.474,0.356,0.759,0.356c0.38,0,0.759-0.158,1.139-0.475c1.012-0.791,2.088-2.057,3.227-3.797
	c0.285-0.442,0.743-1.106,1.376-1.992l1.851,1.044c-2.721,4.492-5.299,7.576-7.735,9.253c-2.437,1.677-4.745,2.515-6.928,2.515
	c-1.962,0-3.496-0.506-4.603-1.519c-1.108-1.012-1.661-2.277-1.661-3.796c0-1.392,0.38-3.369,1.139-5.932l5.884-20.215
	c0.38-1.392,0.569-2.403,0.569-3.037c0-0.348-0.135-0.656-0.403-0.925c-0.269-0.269-0.578-0.403-0.925-0.403
	c-1.139,0-2.705,0.949-4.698,2.847c-4.113,3.892-8.226,9.997-12.337,18.316l-4.223,14.094h-11.768l15.564-53.621
	c0.633-2.278,0.949-3.907,0.949-4.888c0-0.79-0.316-1.407-0.949-1.851c-0.823-0.601-2.088-0.854-3.796-0.759l0.332-1.898l15.802-2.8
	H196.407z"/>
<path d="M264.584,42.341l-9.206,31.555l-0.949,3.844c-0.095,0.475-0.143,0.823-0.143,1.044c0,0.38,0.134,0.712,0.403,0.997
	c0.269,0.284,0.546,0.427,0.831,0.427c0.664,0,1.582-0.506,2.752-1.519c0.475-0.411,1.614-1.866,3.417-4.365l1.661,0.854
	c-2.247,4.113-4.643,7.11-7.189,8.992c-2.547,1.882-5.291,2.824-8.233,2.824c-1.803,0-3.179-0.468-4.128-1.4
	s-1.424-2.111-1.424-3.535c0-1.233,0.506-3.527,1.519-6.881l1.139-3.843c-3.67,6.295-7.197,10.756-10.582,13.381
	c-1.962,1.519-4.05,2.278-6.264,2.278c-2.911,0-5.014-1.195-6.311-3.583c-1.298-2.389-1.946-5.085-1.946-8.091
	c0-4.46,1.36-9.577,4.081-15.351c2.72-5.772,6.295-10.416,10.724-13.928c3.638-2.91,7.054-4.365,10.25-4.365
	c1.771,0,3.195,0.515,4.271,1.542c1.075,1.028,1.866,2.903,2.373,5.623l1.708-5.836L264.584,42.341z M249.399,51.357
	c0-2.563-0.396-4.413-1.186-5.552c-0.569-0.791-1.345-1.187-2.325-1.187c-0.981,0-1.993,0.475-3.037,1.423
	c-2.12,1.962-4.406,5.94-6.857,11.935c-2.452,5.995-3.677,11.175-3.677,15.541c0,1.677,0.276,2.887,0.83,3.63
	c0.553,0.743,1.163,1.115,1.827,1.115c1.423,0,2.863-0.822,4.318-2.468c2.088-2.341,3.969-5.203,5.646-8.589
	C247.912,61.258,249.399,55.976,249.399,51.357z"/>
<path d="M291.953,41.676l-9.206,32.268c-0.443,1.487-0.665,2.515-0.665,3.084c0,0.285,0.11,0.507,0.332,0.665
	c0.253,0.253,0.553,0.379,0.902,0.379c1.455,0,3.4-1.296,5.836-3.891c3.48-3.765,7.134-9.174,10.961-16.229l4.318-14.521
	l12.006-0.427l-9.11,31.319c-0.76,2.657-1.14,4.176-1.14,4.555c0,0.254,0.119,0.515,0.356,0.783c0.237,0.27,0.481,0.403,0.735,0.403
	c0.442,0,0.87-0.189,1.281-0.569c1.139-0.917,2.641-2.768,4.508-5.552l1.613,1.139c-4.397,7.941-9.237,11.911-14.52,11.911
	c-1.962,0-3.504-0.499-4.627-1.495c-1.123-0.996-1.685-2.302-1.685-3.915c0-1.708,0.396-3.875,1.187-6.501l2.325-8.02
	c-4.113,5.979-7.103,10.013-8.969,12.101c-2.847,3.132-5.243,5.22-7.189,6.264c-1.945,1.044-3.804,1.566-5.576,1.566
	c-1.677,0-3.124-0.617-4.342-1.852c-1.218-1.233-1.827-2.799-1.827-4.697c0-1.613,0.395-3.78,1.186-6.501l5.362-18.98
	c0.885-3.101,1.329-5.188,1.329-6.264c0-0.475-0.127-0.894-0.379-1.258c-0.254-0.363-0.673-0.648-1.258-0.854
	c-0.585-0.205-1.669-0.309-3.25-0.309l0.475-1.803l16.181-2.8H291.953z"/>
<path d="M355.859,41.676l-2.088,14.663h-1.755c-0.254-3.797-1.417-6.786-3.488-8.969c-2.072-2.183-4.294-3.274-6.667-3.274
	c-1.455,0-2.657,0.427-3.606,1.281c-0.949,0.854-1.424,1.883-1.424,3.085c0,1.013,0.206,1.962,0.617,2.847
	c0.411,0.886,1.329,2.088,2.752,3.606c4.998,5.378,8.035,9.08,9.111,11.104c1.075,2.025,1.613,4.192,1.613,6.501
	c0,2.5-0.633,4.864-1.898,7.095c-1.266,2.229-3.155,4.018-5.67,5.361c-2.516,1.345-5.134,2.018-7.854,2.018
	c-1.835,0-4.098-0.364-6.786-1.092c-1.771-0.506-3.101-0.76-3.985-0.76c-0.791,0-1.408,0.119-1.851,0.356
	c-0.443,0.237-0.934,0.735-1.472,1.495h-1.756l2.325-15.802h1.519c1.107,3.828,2.143,6.557,3.108,8.186
	c0.965,1.629,2.254,2.926,3.867,3.891c1.613,0.966,3.163,1.447,4.65,1.447c1.739,0,3.18-0.546,4.318-1.637
	c1.139-1.092,1.708-2.396,1.708-3.915c0-1.486-0.372-2.926-1.115-4.318c-0.743-1.392-2.46-3.559-5.148-6.501
	c-3.701-4.017-6.138-7.117-7.308-9.301c-0.823-1.581-1.233-3.384-1.233-5.409c0-3.417,1.241-6.264,3.725-8.541
	c2.483-2.278,5.971-3.417,10.463-3.417c1.962,0,4.366,0.349,7.213,1.044c1.424,0.349,2.563,0.522,3.417,0.522
	c1.233,0,2.23-0.522,2.989-1.566H355.859z"/>
<line fill="none" stroke="#231F20" stroke-width="5" stroke-miterlimit="10" x1="376.098" y1="0" x2="376.098" y2="120.366"/>
</svg>
