<?xml version="1.0" encoding="utf-8"?>
<!-- Generator: Adobe Illustrator 15.1.0, SVG Export Plug-In  -->
<!DOCTYPE svg PUBLIC "-//W3C//DTD SVG 1.1//EN" "http://www.w3.org/Graphics/SVG/1.1/DTD/svg11.dtd" [
	<!ENTITY ns_flows "http://ns.adobe.com/Flows/1.0/">
]>
<svg version="1.1"
	 xmlns="http://www.w3.org/2000/svg" xmlns:xlink="http://www.w3.org/1999/xlink" xmlns:a="http://ns.adobe.com/AdobeSVGViewerExtensions/3.0/"
	 x="0px" y="0px" width="611px" height="74px" viewBox="-3.592 -1.866 611 74" enable-background="new -3.592 -1.866 611 74"
	 xml:space="preserve">
<defs>
</defs>
<path fill="#FFFFFF" d="M0,50.111l6.553-7.849c4.536,3.744,9.289,6.121,15.049,6.121c4.536,0,7.272-1.8,7.272-4.752v-0.144
	c0-2.808-1.728-4.249-10.153-6.409c-10.153-2.592-16.706-5.4-16.706-15.409v-0.144c0-9.145,7.345-15.193,17.642-15.193
	c7.345,0,13.609,2.304,18.722,6.409l-5.761,8.353c-4.464-3.096-8.856-4.968-13.105-4.968s-6.48,1.944-6.48,4.393v0.144
	c0,3.313,2.16,4.393,10.873,6.625c10.225,2.664,15.986,6.336,15.986,15.121v0.144c0,10.009-7.633,15.625-18.506,15.625
	C13.753,58.176,6.048,55.512,0,50.111z"/>
<path fill="#FFFFFF" d="M46.585,46.511v-18.29h-4.608v-9.361h4.608V8.996H57.53v9.865h9.073v9.361H57.53v16.489
	c0,2.52,1.08,3.744,3.528,3.744c2.016,0,3.816-0.504,5.4-1.368v8.785c-2.304,1.368-4.968,2.232-8.641,2.232
	C51.121,58.104,46.585,55.44,46.585,46.511z"/>
<path fill="#FFFFFF" d="M69.12,46.367v-0.144c0-8.425,6.409-12.313,15.553-12.313c3.888,0,6.697,0.648,9.433,1.584v-0.648
	c0-4.537-2.809-7.057-8.281-7.057c-4.177,0-7.129,0.792-10.657,2.088l-2.736-8.353c4.249-1.872,8.425-3.096,14.978-3.096
	c5.977,0,10.297,1.584,13.033,4.32c2.88,2.88,4.176,7.128,4.176,12.313v22.394H94.034V53.28c-2.664,2.952-6.336,4.896-11.665,4.896
	C75.097,58.176,69.12,54,69.12,46.367z M94.25,43.847v-1.944c-1.872-0.864-4.32-1.44-6.984-1.44c-4.68,0-7.561,1.873-7.561,5.329
	v0.144c0,2.952,2.448,4.68,5.977,4.68C90.794,50.615,94.25,47.807,94.25,43.847z"/>
<path fill="#FFFFFF" d="M108.936,38.375V38.23c0-11.017,8.425-20.09,20.233-20.09c7.273,0,11.809,2.448,15.41,6.48l-6.697,7.201
	c-2.448-2.592-4.896-4.249-8.785-4.249c-5.473,0-9.361,4.825-9.361,10.513v0.144c0,5.904,3.816,10.657,9.793,10.657
	c3.672,0,6.192-1.584,8.856-4.104l6.409,6.481c-3.744,4.104-8.064,7.057-15.77,7.057C117.433,58.32,108.936,49.391,108.936,38.375z"
	/>
<path fill="#FFFFFF" d="M148.68,4.892h10.945v28.01l12.817-14.041h13.105l-14.689,15.193l15.193,23.402h-12.673l-9.865-15.841
	l-3.888,4.104v11.737H148.68V4.892z"/>
<path fill="#FFFFFF" d="M185.04,46.367v-0.144c0-8.425,6.409-12.313,15.553-12.313c3.888,0,6.697,0.648,9.433,1.584v-0.648
	c0-4.537-2.809-7.057-8.281-7.057c-4.177,0-7.129,0.792-10.657,2.088l-2.736-8.353c4.249-1.872,8.425-3.096,14.978-3.096
	c5.977,0,10.297,1.584,13.033,4.32c2.88,2.88,4.176,7.128,4.176,12.313v22.394h-10.585V53.28c-2.664,2.952-6.336,4.896-11.665,4.896
	C191.017,58.176,185.04,54,185.04,46.367z M210.17,43.847v-1.944c-1.872-0.864-4.32-1.44-6.984-1.44
	c-4.68,0-7.561,1.873-7.561,5.329v0.144c0,2.952,2.448,4.68,5.977,4.68C206.714,50.615,210.17,47.807,210.17,43.847z"/>
<path fill="#FFFFFF" d="M225,38.23v-0.144c0-12.889,8.424-19.946,17.569-19.946c5.832,0,9.433,2.664,12.025,5.761V4.892h10.944
	v52.564h-10.944v-5.544c-2.665,3.6-6.337,6.265-12.025,6.265C233.568,58.176,225,51.12,225,38.23z M254.738,38.23v-0.144
	c0-6.409-4.248-10.657-9.36-10.657c-5.113,0-9.433,4.176-9.433,10.657v0.144c0,6.409,4.32,10.657,9.433,10.657
	C250.49,48.887,254.738,44.639,254.738,38.23z"/>
<path fill="#FFFFFF" d="M270.214,38.375V38.23c0-11.017,7.849-20.09,19.081-20.09c12.89,0,18.794,10.009,18.794,20.954
	c0,0.864-0.072,1.873-0.144,2.88h-26.858c1.08,4.969,4.536,7.561,9.433,7.561c3.672,0,6.337-1.152,9.36-3.96l6.265,5.544
	c-3.6,4.464-8.784,7.201-15.77,7.201C278.783,58.32,270.214,50.184,270.214,38.375z M297.432,35.134
	c-0.647-4.896-3.528-8.209-8.137-8.209c-4.536,0-7.488,3.24-8.353,8.209H297.432z"/>
<path fill="#FFFFFF" d="M312.982,18.861h10.945v5.472c2.52-3.24,5.832-6.192,11.377-6.192c5.04,0,8.856,2.232,10.872,6.121
	c3.385-3.96,7.417-6.121,12.674-6.121c8.137,0,13.033,4.896,13.033,14.185v25.13h-10.945v-21.53c0-5.185-2.304-7.849-6.408-7.849
	s-6.625,2.664-6.625,7.849v21.53h-10.945v-21.53c0-5.185-2.304-7.849-6.408-7.849s-6.624,2.664-6.624,7.849v21.53h-10.945V18.861z"
	/>
<path fill="#FFFFFF" d="M402.408,18.861h11.377l-14.833,39.531c-2.952,7.849-6.12,10.801-12.673,10.801
	c-3.96,0-6.913-1.008-9.721-2.664l3.672-7.921c1.44,0.864,3.24,1.512,4.681,1.512c1.872,0,2.88-0.576,3.816-2.52l-15.121-38.739
	h11.593l8.785,26.282L402.408,18.861z"/>
<path fill="#FFFFFF" d="M462.38,0h5.111l-33.408,66.672h-5.111L462.38,0z"/>
<path fill="#FFFFFF" d="M476.205,58.176c-2.688,0-5.4-0.493-8.136-1.476c-2.736-0.983-5.16-2.315-7.272-3.996l2.809-3.96
	c2.016,1.537,4.115,2.712,6.3,3.528c2.184,0.817,4.38,1.224,6.588,1.224c2.256,0,4.104-0.528,5.544-1.584
	c1.44-1.055,2.16-2.495,2.16-4.32v-0.144c0-0.96-0.252-1.764-0.756-2.412s-1.188-1.224-2.052-1.728
	c-0.864-0.504-1.849-0.947-2.952-1.332c-1.105-0.384-2.28-0.744-3.528-1.08c-1.44-0.432-2.893-0.9-4.356-1.404
	s-2.784-1.14-3.96-1.908c-1.177-0.767-2.136-1.728-2.88-2.88s-1.115-2.592-1.115-4.32V30.24c0-1.584,0.312-3.036,0.936-4.356
	c0.623-1.32,1.5-2.448,2.628-3.384c1.127-0.936,2.472-1.656,4.032-2.16c1.559-0.504,3.251-0.756,5.076-0.756
	c2.304,0,4.631,0.373,6.983,1.116c2.352,0.745,4.488,1.74,6.408,2.988l-2.52,4.176c-1.729-1.104-3.541-1.98-5.437-2.628
	c-1.896-0.648-3.756-0.972-5.58-0.972c-2.208,0-3.96,0.516-5.256,1.548c-1.296,1.033-1.944,2.316-1.944,3.852v0.144
	c0,0.864,0.264,1.62,0.792,2.268s1.235,1.212,2.124,1.692c0.888,0.48,1.908,0.913,3.061,1.296c1.151,0.385,2.351,0.769,3.6,1.152
	c1.44,0.432,2.868,0.913,4.284,1.44c1.415,0.528,2.7,1.2,3.852,2.016c1.152,0.817,2.076,1.8,2.772,2.952
	c0.695,1.152,1.044,2.568,1.044,4.248v0.144c0,1.776-0.349,3.348-1.044,4.716c-0.696,1.368-1.633,2.533-2.808,3.492
	c-1.177,0.96-2.568,1.692-4.177,2.196S478.077,58.176,476.205,58.176z"/>
<path fill="#FFFFFF" d="M508.244,58.104c-1.489,0-2.881-0.192-4.177-0.575c-1.296-0.383-2.412-0.994-3.348-1.832
	c-0.936-0.838-1.668-1.928-2.196-3.27c-0.528-1.341-0.792-2.945-0.792-4.813V25.2h-5.184v-4.968h5.184V9h5.544v11.232h11.809V25.2
	h-11.809v21.744c0,2.304,0.576,3.913,1.729,4.824c1.151,0.913,2.664,1.368,4.536,1.368c0.959,0,1.859-0.102,2.699-0.304
	c0.84-0.203,1.739-0.557,2.7-1.064v4.752c-0.961,0.529-1.979,0.925-3.06,1.188S509.586,58.104,508.244,58.104z"/>
<path fill="#FFFFFF" d="M532.723,58.248c-1.729,0-3.433-0.252-5.112-0.756c-1.681-0.504-3.168-1.235-4.464-2.196
	c-1.296-0.959-2.34-2.16-3.132-3.6c-0.792-1.44-1.188-3.12-1.188-5.04v-0.144c0-2.016,0.384-3.78,1.152-5.292
	c0.768-1.512,1.859-2.772,3.275-3.78c1.416-1.008,3.097-1.775,5.04-2.304c1.944-0.528,4.092-0.792,6.444-0.792
	c2.399,0,4.476,0.144,6.229,0.432c1.751,0.288,3.467,0.673,5.147,1.152v-1.16c0-3.332-0.961-5.856-2.88-7.571
	c-1.92-1.714-4.633-2.573-8.136-2.573c-2.209,0-4.212,0.241-6.013,0.72c-1.8,0.48-3.563,1.128-5.292,1.944l-1.655-4.509
	c2.063-0.946,4.151-1.704,6.264-2.271c2.111-0.567,4.536-0.852,7.272-0.852c5.279,0,9.287,1.368,12.023,4.104
	c2.592,2.592,3.888,6.24,3.888,10.944v22.752h-5.472v-5.544c-0.624,0.817-1.368,1.609-2.231,2.376
	c-0.864,0.769-1.849,1.44-2.952,2.016c-1.105,0.576-2.34,1.044-3.708,1.404S534.354,58.248,532.723,58.248z M533.843,53.784
	c1.723,0,3.325-0.24,4.809-0.72c1.482-0.479,2.786-1.163,3.911-2.052c1.124-0.888,2.01-1.944,2.655-3.168
	c0.646-1.224,0.969-2.58,0.969-4.068V40.32c-1.389-0.383-2.967-0.743-4.736-1.08c-1.771-0.335-3.804-0.504-6.1-0.504
	c-3.445,0-6.112,0.684-8.002,2.052c-1.891,1.368-2.834,3.18-2.834,5.436v0.144c0,1.152,0.251,2.196,0.754,3.132
	c0.501,0.936,1.183,1.717,2.045,2.34c0.86,0.625,1.853,1.105,2.978,1.44C531.416,53.616,532.599,53.784,533.843,53.784z"/>
<path fill="#FFFFFF" d="M560.083,20.232h5.544v9.72c0.671-1.536,1.512-2.952,2.52-4.248s2.16-2.412,3.456-3.348
	s2.711-1.656,4.248-2.16c1.536-0.504,3.191-0.708,4.968-0.612v5.976h-0.432c-2.016,0-3.924,0.36-5.724,1.08
	c-1.801,0.72-3.373,1.8-4.717,3.24s-2.4,3.216-3.168,5.328c-0.769,2.113-1.151,4.584-1.151,7.416v14.832h-5.544V20.232z"/>
<path fill="#FFFFFF" d="M598.459,58.104c-1.489,0-2.881-0.192-4.177-0.575c-1.296-0.383-2.412-0.994-3.348-1.832
	c-0.936-0.838-1.668-1.928-2.196-3.27c-0.528-1.341-0.792-2.945-0.792-4.813V25.2h-5.184v-4.968h5.184V9h5.544v11.232h11.809V25.2
	h-11.809v21.744c0,2.304,0.576,3.913,1.729,4.824c1.151,0.913,2.664,1.368,4.536,1.368c0.959,0,1.859-0.102,2.699-0.304
	c0.84-0.203,1.739-0.557,2.7-1.064v4.752c-0.961,0.529-1.979,0.925-3.06,1.188S599.802,58.104,598.459,58.104z"/>
</svg>
