<?xml version="1.0" encoding="utf-8"?>
<!-- Generator: Adobe Illustrator 15.1.0, SVG Export Plug-In  -->
<!DOCTYPE svg PUBLIC "-//W3C//DTD SVG 1.1//EN" "http://www.w3.org/Graphics/SVG/1.1/DTD/svg11.dtd" [
	<!ENTITY ns_flows "http://ns.adobe.com/Flows/1.0/">
]>
<svg version="1.1"
	 xmlns="http://www.w3.org/2000/svg" xmlns:xlink="http://www.w3.org/1999/xlink" xmlns:a="http://ns.adobe.com/AdobeSVGViewerExtensions/3.0/"
	 x="0px" y="0px" width="418px" height="74px" viewBox="-3.592 -6.757 418 74" enable-background="new -3.592 -6.757 418 74"
	 xml:space="preserve">
<defs>
</defs>
<path fill="#FFFFFF" d="M0,45.22l6.553-7.849c4.536,3.744,9.289,6.121,15.049,6.121c4.536,0,7.272-1.8,7.272-4.752v-0.144
	c0-2.808-1.728-4.249-10.153-6.409c-10.153-2.592-16.706-5.4-16.706-15.409v-0.144c0-9.145,7.345-15.193,17.642-15.193
	c7.345,0,13.609,2.304,18.722,6.409l-5.761,8.353c-4.464-3.096-8.856-4.968-13.105-4.968s-6.48,1.944-6.48,4.393v0.144
	c0,3.313,2.16,4.393,10.873,6.625c10.225,2.664,15.986,6.336,15.986,15.121v0.144c0,10.009-7.633,15.625-18.506,15.625
	C13.753,53.285,6.048,50.62,0,45.22z"/>
<path fill="#FFFFFF" d="M46.585,41.62V23.33h-4.608v-9.361h4.608V4.104H57.53v9.865h9.073v9.361H57.53v16.489
	c0,2.52,1.08,3.744,3.528,3.744c2.016,0,3.816-0.504,5.4-1.368v8.785c-2.304,1.368-4.968,2.232-8.641,2.232
	C51.121,53.212,46.585,50.548,46.585,41.62z"/>
<path fill="#FFFFFF" d="M69.12,41.476v-0.144c0-8.425,6.409-12.313,15.553-12.313c3.888,0,6.697,0.648,9.433,1.584v-0.648
	c0-4.537-2.809-7.057-8.281-7.057c-4.177,0-7.129,0.792-10.657,2.088l-2.736-8.353c4.249-1.872,8.425-3.096,14.978-3.096
	c5.977,0,10.297,1.584,13.033,4.32c2.88,2.88,4.176,7.128,4.176,12.313v22.394H94.034v-4.176c-2.664,2.952-6.336,4.896-11.665,4.896
	C75.097,53.285,69.12,49.108,69.12,41.476z M94.25,38.955v-1.944c-1.872-0.864-4.32-1.44-6.984-1.44
	c-4.68,0-7.561,1.873-7.561,5.329v0.144c0,2.952,2.448,4.68,5.977,4.68C90.794,45.724,94.25,42.916,94.25,38.955z"/>
<path fill="#FFFFFF" d="M108.936,33.483v-0.144c0-11.017,8.425-20.09,20.233-20.09c7.273,0,11.809,2.448,15.41,6.48l-6.697,7.201
	c-2.448-2.592-4.896-4.249-8.785-4.249c-5.473,0-9.361,4.825-9.361,10.513v0.144c0,5.904,3.816,10.657,9.793,10.657
	c3.672,0,6.192-1.584,8.856-4.104l6.409,6.481c-3.744,4.104-8.064,7.057-15.77,7.057C117.433,53.429,108.936,44.5,108.936,33.483z"
	/>
<path fill="#FFFFFF" d="M148.68,0h10.945v28.01l12.817-14.041h13.105l-14.689,15.193l15.193,23.402h-12.673l-9.865-15.841
	l-3.888,4.104v11.737H148.68V0z"/>
<path fill="#FFFFFF" d="M185.04,41.476v-0.144c0-8.425,6.409-12.313,15.553-12.313c3.888,0,6.697,0.648,9.433,1.584v-0.648
	c0-4.537-2.809-7.057-8.281-7.057c-4.177,0-7.129,0.792-10.657,2.088l-2.736-8.353c4.249-1.872,8.425-3.096,14.978-3.096
	c5.977,0,10.297,1.584,13.033,4.32c2.88,2.88,4.176,7.128,4.176,12.313v22.394h-10.585v-4.176
	c-2.664,2.952-6.336,4.896-11.665,4.896C191.017,53.285,185.04,49.108,185.04,41.476z M210.17,38.955v-1.944
	c-1.872-0.864-4.32-1.44-6.984-1.44c-4.68,0-7.561,1.873-7.561,5.329v0.144c0,2.952,2.448,4.68,5.977,4.68
	C206.714,45.724,210.17,42.916,210.17,38.955z"/>
<path fill="#FFFFFF" d="M225,33.339v-0.144c0-12.889,8.424-19.946,17.569-19.946c5.832,0,9.433,2.664,12.025,5.761V0h10.944v52.564
	h-10.944V47.02c-2.665,3.6-6.337,6.265-12.025,6.265C233.568,53.285,225,46.228,225,33.339z M254.738,33.339v-0.144
	c0-6.409-4.248-10.657-9.36-10.657c-5.113,0-9.433,4.176-9.433,10.657v0.144c0,6.409,4.32,10.657,9.433,10.657
	C250.49,43.996,254.738,39.748,254.738,33.339z"/>
<path fill="#FFFFFF" d="M270.214,33.483v-0.144c0-11.017,7.849-20.09,19.081-20.09c12.89,0,18.794,10.009,18.794,20.954
	c0,0.864-0.072,1.873-0.144,2.88h-26.858c1.08,4.969,4.536,7.561,9.433,7.561c3.672,0,6.337-1.152,9.36-3.96l6.265,5.544
	c-3.6,4.464-8.784,7.201-15.77,7.201C278.783,53.429,270.214,45.292,270.214,33.483z M297.432,30.243
	c-0.647-4.896-3.528-8.209-8.137-8.209c-4.536,0-7.488,3.24-8.353,8.209H297.432z"/>
<path fill="#FFFFFF" d="M312.982,13.969h10.945v5.472c2.52-3.24,5.832-6.192,11.377-6.192c5.04,0,8.856,2.232,10.872,6.121
	c3.385-3.96,7.417-6.121,12.674-6.121c8.137,0,13.033,4.896,13.033,14.185v25.13h-10.945v-21.53c0-5.185-2.304-7.849-6.408-7.849
	s-6.625,2.664-6.625,7.849v21.53h-10.945v-21.53c0-5.185-2.304-7.849-6.408-7.849s-6.624,2.664-6.624,7.849v21.53h-10.945V13.969z"
	/>
<path fill="#FFFFFF" d="M402.408,13.969h11.377L398.952,53.5c-2.952,7.849-6.12,10.801-12.673,10.801
	c-3.96,0-6.913-1.008-9.721-2.664l3.672-7.921c1.44,0.864,3.24,1.512,4.681,1.512c1.872,0,2.88-0.576,3.816-2.52l-15.121-38.739
	h11.593l8.785,26.282L402.408,13.969z"/>
</svg>
